<?xml version="1.0" encoding="UTF-8"?>
<svg version="1.1" xmlns="http://www.w3.org/2000/svg" width="80" height="82">
<path d="M0 0 C9.2008035 6.76162625 15.72643221 14.49972021 18 26 C18.97863019 38.83511139 16.02934892 48.7647813 7.8125 58.625 C-2.23985412 67.11365459 -11.93391144 69.97995664 -25 69 C-35.01440503 67.3262441 -42.02650016 61.85780803 -48.4609375 54.21875 C-54.08249839 46.11457085 -55.89541654 36.67785826 -55 27 C-52.58802494 16.83971126 -48.16616543 8.62246686 -40 2 C-27.9720132 -5.20937884 -12.58478707 -7.35782051 0 0 Z M-41.9375 11.6875 C-47.71270938 19.00369073 -49.63959065 27.0417751 -49.33984375 36.25 C-48.8765434 39.99900511 -47.80239037 42.69561766 -46 46 C-41.38800139 43.01493342 -37.05456659 39.78582183 -32.75 36.375 C-32.12609375 35.88515625 -31.5021875 35.3953125 -30.859375 34.890625 C-25.23848181 30.70340507 -25.23848181 30.70340507 -23.1484375 24.421875 C-23.01953125 23.50792969 -22.890625 22.59398438 -22.7578125 21.65234375 C-22.56832031 20.21568359 -22.56832031 20.21568359 -22.375 18.75 C-22.2409375 17.80769531 -22.106875 16.86539062 -21.96875 15.89453125 C-21.32766146 11.23028505 -20.82575026 6.72058396 -21 2 C-29.34677846 1.50973401 -36.24958968 5.7421627 -41.9375 11.6875 Z M-16 2 C-15.8025837 4.78980409 -15.57833006 7.57405105 -15.32421875 10.359375 C-15.10092974 12.86666843 -14.91838253 15.37781351 -14.76953125 17.890625 C-14.25035753 26.22565456 -14.25035753 26.22565456 -9.6875 32.8125 C-8.14397527 33.90238252 -6.57805112 34.9607372 -5 36 C-3.24898788 37.32663451 -1.52111309 38.68056815 0.20776367 40.03588867 C2.78471885 42.05118627 5.39247173 44.02447934 8 46 C10.94298116 43.31293025 11.86738748 41.31665283 12.2734375 37.28515625 C12.59794852 26.98817207 10.25566837 18.71570358 3.8125 10.5625 C-0.78994349 5.74902744 -6.56426312 2.12980352 -13.30859375 1.875 C-14.19675781 1.91625 -15.08492187 1.9575 -16 2 Z M-26.30078125 41.96875 C-27.27724609 42.37480469 -28.25371094 42.78085937 -29.25976562 43.19921875 C-30.77086914 43.84310547 -30.77086914 43.84310547 -32.3125 44.5 C-33.33923828 44.92925781 -34.36597656 45.35851563 -35.42382812 45.80078125 C-37.95263673 46.85935229 -40.47772987 47.92596425 -43 49 C-41.73158605 54.7730616 -37.84871865 57.16102519 -33.02734375 60.2734375 C-25.62483897 64.17531853 -17.16142906 64.2482804 -9.125 62.3046875 C-3.73754962 60.35009422 1.32806536 57.49166317 5 53 C5.36617113 51.67530849 5.70359029 50.34202466 6 49 C2.44347078 47.48555494 -1.12110094 45.99103689 -4.6875 44.5 C-6.19860352 43.85611328 -6.19860352 43.85611328 -7.74023438 43.19921875 C-8.71669922 42.79316406 -9.69316406 42.38710938 -10.69921875 41.96875 C-11.59471436 41.59169922 -12.49020996 41.21464844 -13.4128418 40.82617188 C-18.31500583 39.26073608 -21.63322004 40.00346107 -26.30078125 41.96875 Z " fill="#BAC1C9" transform="translate(58,9)"/>
<path d="M0 0 C0 10.56 0 21.12 0 32 C1.98 31.01 3.96 30.02 6 29 C6.76183594 29.65226562 7.52367187 30.30453125 8.30859375 30.9765625 C14.30354408 36.06584295 20.30399476 40.84036038 27 45 C28.84566532 41.01606389 29.36022829 37.55623317 29.625 33.1875 C29.69976562 32.02605469 29.77453125 30.86460938 29.8515625 29.66796875 C29.90054688 28.78753906 29.94953125 27.90710938 30 27 C33.27533869 31.91300804 33.78085867 36.24116732 33 42 C29.53620975 51.80909566 23.344799 59.40336914 14 64 C11.03708802 65.1473796 8.05527246 66.13009604 5 67 C5.33 67.66 5.66 68.32 6 69 C-5.56622828 69.48947988 -14.23326624 68.60953708 -23.6015625 61.5 C-25 60 -25 60 -25 57 C-24.67 56.34 -24.34 55.68 -24 55 C-23.62875 55.474375 -23.2575 55.94875 -22.875 56.4375 C-20.35343103 58.53880748 -18.2285684 58.50329717 -15 59 C-14.01 59.515625 -13.02 60.03125 -12 60.5625 C-4.85273576 63.76371369 4.31325591 62.98714304 11.5 60.3125 C16.91430937 57.79235271 21.72953691 54.77936059 24 49 C24.33 48.67 24.66 48.34 25 48 C21.33031379 45.78152621 17.63685091 43.60608502 13.9375 41.4375 C12.89916016 40.80908203 11.86082031 40.18066406 10.79101562 39.53320312 C4.77516925 35.75043543 4.77516925 35.75043543 -2.05078125 35 C-6.9365991 36.65664817 -10.89804848 39.28245017 -15.19140625 42.078125 C-15.76552246 42.44478271 -16.33963867 42.81144043 -16.93115234 43.18920898 C-18.63224104 44.27715854 -20.32219963 45.38245029 -22.01171875 46.48828125 C-25 48 -25 48 -27.39453125 47.73046875 C-27.92433594 47.48941406 -28.45414063 47.24835937 -29 47 C-27.75265884 44.50531768 -26.05086353 43.6410013 -23.75585938 42.15966797 C-20.64482271 40.10496494 -17.70261993 37.83639268 -14.75 35.5625 C-14.12609375 35.09779297 -13.5021875 34.63308594 -12.859375 34.15429688 C-12.26125 33.69216797 -11.663125 33.23003906 -11.046875 32.75390625 C-10.50901367 32.34470947 -9.97115234 31.9355127 -9.41699219 31.51391602 C-6.26509445 28.14642499 -5.69331552 23.91379448 -5.1484375 19.48046875 C-4.95507812 17.9480957 -4.95507812 17.9480957 -4.7578125 16.38476562 C-4.63148437 15.32966797 -4.50515625 14.27457031 -4.375 13.1875 C-4.2409375 12.11306641 -4.106875 11.03863281 -3.96875 9.93164062 C-3.63981866 7.28844239 -3.31711501 4.64463748 -3 2 C-4.65 2 -6.3 2 -8 2 C-8 1.67 -8 1.34 -8 1 C-1.125 0 -1.125 0 0 0 Z " fill="#D5DADD" transform="translate(40,9)"/>
<path d="M0 0 C0.33 0 0.66 0 1 0 C1.12117187 0.845625 1.24234375 1.69125 1.3671875 2.5625 C2.29083695 8.81489625 3.32664417 14.90420377 5 21 C8.70477897 20.33278862 11.42541095 18.69170312 14.625 16.75 C22.72965116 11.96627907 22.72965116 11.96627907 26.375 10 C27.12523438 9.5875 27.87546875 9.175 28.6484375 8.75 C32.56767802 7.50000967 35.9125935 8.49399955 39.57714844 10.19921875 C40.4127832 10.69035156 41.24841797 11.18148437 42.109375 11.6875 C43.02847656 12.22117187 43.94757812 12.75484375 44.89453125 13.3046875 C46.30798828 14.14386719 46.30798828 14.14386719 47.75 15 C49.64054563 16.10430256 51.53116683 17.20847576 53.421875 18.3125 C54.25299805 18.80363281 55.08412109 19.29476562 55.94042969 19.80078125 C57.27040208 20.57517959 58.62347703 21.31173851 60 22 C59.67 22.66 59.34 23.32 59 24 C55.09375 22.53515625 51.1875 21.0703125 47.28125 19.60546875 C46.57226562 19.34427246 45.86328125 19.08307617 45.1328125 18.81396484 C43.71875898 18.2743066 42.31680082 17.70174489 40.9296875 17.09619141 C33.64241892 14.00648801 28.20446288 15.72445257 21.08398438 18.57617188 C19.89772461 19.0644043 19.89772461 19.0644043 18.6875 19.5625 C17.08842585 20.21256117 15.48821689 20.85983997 13.88671875 21.50390625 C13.18764404 21.79080322 12.48856934 22.0777002 11.76831055 22.37329102 C10 23 10 23 8 23 C9.40374551 25.4732659 10.66939168 27.66939168 12.6875 29.6875 C13.120625 30.120625 13.55375 30.55375 14 31 C14 31.66 14 32.32 14 33 C12.68 32.34 11.36 31.68 10 31 C9.67 31.33 9.34 31.66 9 32 C6.14994382 31.8034444 5.06219314 31.0602496 3 29.0625 C-1.87706231 21.59449834 -3.68075339 14.88761376 -3 6 C-2.34 5.67 -1.68 5.34 -1 5 C-0.34444881 2.47266765 -0.34444881 2.47266765 0 0 Z " fill="#889197" transform="translate(7,35)"/>
<path d="M0 0 C0 10.56 0 21.12 0 32 C1.98 31.01 3.96 30.02 6 29 C7.89848764 30.55936385 9.79378663 32.12235589 11.6875 33.6875 C12.21794922 34.12255859 12.74839844 34.55761719 13.29492188 35.00585938 C16.7215576 37.84387056 19.89990061 40.80787539 23 44 C19.4213696 42.34832443 16.25179812 40.21713508 13 38 C13.33 38.99 13.66 39.98 14 41 C10.9394139 39.8870596 8.33761858 38.58213154 5.625 36.8125 C2.82372519 35.19358144 1.92244556 35 -1.5 35 C-6.71153745 36.4890107 -10.69352158 39.14926987 -15.19140625 42.078125 C-15.76552246 42.44478271 -16.33963867 42.81144043 -16.93115234 43.18920898 C-18.63224104 44.27715854 -20.32219963 45.38245029 -22.01171875 46.48828125 C-25 48 -25 48 -27.39453125 47.73046875 C-27.92433594 47.48941406 -28.45414063 47.24835937 -29 47 C-27.75265884 44.50531768 -26.05086353 43.6410013 -23.75585938 42.15966797 C-20.64482271 40.10496494 -17.70261993 37.83639268 -14.75 35.5625 C-14.12609375 35.09779297 -13.5021875 34.63308594 -12.859375 34.15429688 C-12.26125 33.69216797 -11.663125 33.23003906 -11.046875 32.75390625 C-10.50901367 32.34470947 -9.97115234 31.9355127 -9.41699219 31.51391602 C-6.26509445 28.14642499 -5.69331552 23.91379448 -5.1484375 19.48046875 C-4.95507812 17.9480957 -4.95507812 17.9480957 -4.7578125 16.38476562 C-4.63148437 15.32966797 -4.50515625 14.27457031 -4.375 13.1875 C-4.2409375 12.11306641 -4.106875 11.03863281 -3.96875 9.93164062 C-3.63981866 7.28844239 -3.31711501 4.64463748 -3 2 C-4.65 2 -6.3 2 -8 2 C-8 1.67 -8 1.34 -8 1 C-1.125 0 -1.125 0 0 0 Z " fill="#C5CBD0" transform="translate(40,9)"/>
<path d="M0 0 C1.91232422 -0.02126953 1.91232422 -0.02126953 3.86328125 -0.04296875 C7.85325384 0.19748925 10.91288569 0.9520829 14.6875 2.1875 C14.3575 2.8475 14.0275 3.5075 13.6875 4.1875 C11.82158203 4.11789063 11.82158203 4.11789063 9.91796875 4.046875 C0.50282584 3.79985527 -7.78067554 3.64419102 -16.3125 8.1875 C-16.97378906 8.52652344 -17.63507812 8.86554687 -18.31640625 9.21484375 C-24.13687685 12.74735399 -27.80456942 18.91503001 -30.0390625 25.24609375 C-30.35809845 27.51124902 -29.90370801 28.99158455 -29.3125 31.1875 C-29.3475794 36.16877509 -29.64011527 40.51511527 -33.3125 44.1875 C-33.6425 41.5475 -33.9725 38.9075 -34.3125 36.1875 C-34.6425 38.1675 -34.9725 40.1475 -35.3125 42.1875 C-35.6425 42.1875 -35.9725 42.1875 -36.3125 42.1875 C-37.13808394 30.53759325 -34.43433452 20.47461669 -26.85546875 11.453125 C-19.49049715 3.38097814 -10.7320563 0.05392993 0 0 Z " fill="#C6CACF" transform="translate(39.3125,4.8125)"/>
<path d="M0 0 C5.10949424 1.89240527 8.00207895 5.83622296 10.20703125 10.6171875 C11.18756006 13.06331238 12.12116779 15.51570335 13 18 C13.66 17.67 14.32 17.34 15 17 C18.47650694 22.21476041 17.60202568 28.7123754 16.5 34.73046875 C13.29693407 46.46897741 6.65411188 53.66292491 -3.6953125 59.765625 C-8.20304678 62.17993692 -12.20625792 62.11905559 -17.1875 62.0625 C-17.93708984 62.05798828 -18.68667969 62.05347656 -19.45898438 62.04882812 C-21.30602383 62.03706354 -23.15302213 62.01912865 -25 62 C-25 61.67 -25 61.34 -25 61 C-24.33355469 60.97421875 -23.66710938 60.9484375 -22.98046875 60.921875 C-12.48510811 60.27600665 -2.63548398 57.58536045 5 50 C10.85668996 42.61717925 13.57802457 36.41354301 13 27 C12.71818839 24.9920923 12.40743184 22.9862302 12 21 C11.34 21 10.68 21 10 21 C9.61328125 19.90300781 9.2265625 18.80601563 8.828125 17.67578125 C8.30258858 16.22117153 7.7765186 14.7667545 7.25 13.3125 C6.99734375 12.59126953 6.7446875 11.87003906 6.484375 11.12695312 C4.89355974 6.77209634 3.16469764 3.48804718 0 0 Z " fill="#626A71" transform="translate(59,15)"/>
<path d="M0 0 C0.33 0 0.66 0 1 0 C1.33 7.92 1.66 15.84 2 24 C3.98 23.34 5.96 22.68 8 22 C10.41594354 23.44583494 12.05784499 24.67165766 14.0625 26.5625 C14.56587891 27.00658203 15.06925781 27.45066406 15.58789062 27.90820312 C18.84919718 30.81511156 21.9349245 33.88993256 25 37 C21.4213696 35.34832443 18.25179812 33.21713508 15 31 C15.33 31.99 15.66 32.98 16 34 C12.90495797 32.87453017 10.5062358 31.66765871 7.75 29.8125 C2.81155243 26.89481763 -1.96384553 28.26317077 -7.26953125 29.55078125 C-8.12611328 29.77314453 -8.12611328 29.77314453 -9 30 C-8.3125 28.1875 -8.3125 28.1875 -7 26 C-6.16339844 25.63132812 -5.32679687 25.26265625 -4.46484375 24.8828125 C-1.57878182 23.11856197 -1.57878182 23.11856197 -1.328125 19.19921875 C-1.27770586 17.69593232 -1.25255587 16.19162953 -1.25 14.6875 C-1.21643641 13.19133851 -1.18002849 11.69523783 -1.140625 10.19921875 C-1.12580078 9.48685059 -1.11097656 8.77448242 -1.09570312 8.04052734 C-0.96775438 5.31247728 -0.52764745 2.67653422 0 0 Z " fill="#C6CACD" transform="translate(38,16)"/>
<path d="M0 0 C0.83563477 0.49113281 1.67126953 0.98226562 2.53222656 1.48828125 C3.45132813 2.02195312 4.37042969 2.555625 5.31738281 3.10546875 C6.2596875 3.66492187 7.20199219 4.224375 8.17285156 4.80078125 C10.06339719 5.90508381 11.95401839 7.00925701 13.84472656 8.11328125 C14.67584961 8.60441406 15.50697266 9.09554687 16.36328125 9.6015625 C17.69325364 10.37596084 19.04632859 11.11251976 20.42285156 11.80078125 C20.09285156 12.46078125 19.76285156 13.12078125 19.42285156 13.80078125 C15.51660156 12.3359375 11.61035156 10.87109375 7.70410156 9.40625 C6.99576172 9.14416748 6.28742187 8.88208496 5.55761719 8.61206055 C4.14030423 8.07343624 2.7322274 7.50981787 1.33496094 6.92114258 C-3.07064705 5.10641647 -6.24177497 4.50885957 -11.07714844 5.11328125 C-12.11871094 5.23316406 -13.16027344 5.35304688 -14.23339844 5.4765625 C-15.00683594 5.58355469 -15.78027344 5.69054688 -16.57714844 5.80078125 C-16.57714844 4.81078125 -16.57714844 3.82078125 -16.57714844 2.80078125 C-11.08271684 -2.24815589 -6.8676407 -3.19570397 0 0 Z " fill="#3D464B" transform="translate(46.5771484375,45.19921875)"/>
<path d="M0 0 C0.53625 0.474375 1.0725 0.94875 1.625 1.4375 C3.90316806 3.16587928 3.90316806 3.16587928 6.625 3.4375 C9.74636986 3.95772831 11.99046736 4.76566778 14.875 6 C18.16198212 7.39312515 20.87657857 8.22109041 24.4375 8.4375 C25.613125 8.623125 26.78875 8.80875 28 9 C29.72265625 11.53515625 29.72265625 11.53515625 31 14 C19.43377172 14.48947988 10.76673376 13.60953708 1.3984375 6.5 C-0.55447929 4.40525126 0 2.73779133 0 0 Z " fill="#A9B1B9" transform="translate(15,64)"/>
<path d="M0 0 C-0.33 0.66 -0.66 1.32 -1 2 C-2.86591797 1.93039063 -2.86591797 1.93039063 -4.76953125 1.859375 C-17.05058439 1.5384308 -26.89837133 2.35552425 -37 10 C-37.66 9.67 -38.32 9.34 -39 9 C-37.515 7.824375 -37.515 7.824375 -36 6.625 C-34.515 5.325625 -34.515 5.325625 -33 4 C-33 3.34 -33 2.68 -33 2 C-22.20095385 -3.02907763 -11.31845418 -3.62770967 0 0 Z " fill="#D3D7DB" transform="translate(54,7)"/>
<path d="M0 0 C0.66 0.66 1.32 1.32 2 2 C-0.31 2 -2.62 2 -5 2 C-5.33 3.32 -5.66 4.64 -6 6 C-6.33 4.68 -6.66 3.36 -7 2 C-15.58047196 2.77018143 -23.07199068 7.01358162 -29.1015625 13.1328125 C-31.70538355 16.50623583 -33.72015708 19.90450266 -35 24 C-35.66 24 -36.32 24 -37 24 C-37.33 24.66 -37.66 25.32 -38 26 C-37.63679378 19.09908177 -33.95920672 13.03674052 -29.2109375 8.1640625 C-20.86380864 1.39704857 -10.65616828 -1.47099594 0 0 Z " fill="#5C5F65" transform="translate(46,8)"/>
<path d="M0 0 C0.66 0 1.32 0 2 0 C2.0803258 3.93596412 1.94690097 5.98487254 -0.7890625 8.91796875 C-10.37002687 16.63871152 -17.81295689 17.46214911 -30 17 C-29.505 15.515 -29.505 15.515 -29 14 C-28.02160156 13.91363281 -27.04320312 13.82726562 -26.03515625 13.73828125 C-16.70372878 12.73815775 -9.12586671 11.43530671 -2.5 4.3125 C-1.00264073 2.09823515 -1.00264073 2.09823515 0 0 Z " fill="#D3D8DD" transform="translate(64,58)"/>
<path d="M0 0 C0.6015625 1.81640625 0.6015625 1.81640625 1 4 C-3.77020516 12.62306317 -11.65837636 18.88612545 -21 22 C-23.73865287 22.07051114 -26.45027588 22.09357765 -29.1875 22.0625 C-29.93708984 22.05798828 -30.68667969 22.05347656 -31.45898438 22.04882812 C-33.30602383 22.03706354 -35.15302213 22.01912865 -37 22 C-37 21.67 -37 21.34 -37 21 C-36.33355469 20.97421875 -35.66710938 20.9484375 -34.98046875 20.921875 C-24.50559811 20.27726758 -14.60040339 17.60040339 -7 10 C-4.47482147 6.78087928 -2.1861854 3.45690567 0 0 Z " fill="#5F676B" transform="translate(71,55)"/>
<path d="M0 0 C0.33 0 0.66 0 1 0 C1.11618764 3.91641711 1.18724654 7.83239101 1.25 11.75 C1.28351562 12.86117188 1.31703125 13.97234375 1.3515625 15.1171875 C1.36445312 16.18710937 1.37734375 17.25703125 1.390625 18.359375 C1.41157227 19.34389648 1.43251953 20.32841797 1.45410156 21.34277344 C0.87026734 24.7591453 -0.31669556 25.87476515 -3 28 C-6.25 29.25 -6.25 29.25 -9 30 C-8.3125 28.1875 -8.3125 28.1875 -7 26 C-6.16339844 25.63132812 -5.32679687 25.26265625 -4.46484375 24.8828125 C-1.57878182 23.11856197 -1.57878182 23.11856197 -1.328125 19.19921875 C-1.27770586 17.69593232 -1.25255587 16.19162953 -1.25 14.6875 C-1.21643641 13.19133851 -1.18002849 11.69523783 -1.140625 10.19921875 C-1.12580078 9.48685059 -1.11097656 8.77448242 -1.09570312 8.04052734 C-0.96775438 5.31247728 -0.52764745 2.67653422 0 0 Z " fill="#F0F4F7" transform="translate(38,16)"/>
<path d="M0 0 C5.86894723 2.17368416 8.82979288 7.29868216 11.375 12.6875 C13.13846154 16.58461538 13.13846154 16.58461538 12 20 C11.34 20.99 10.68 21.98 10 23 C9.67386719 22.03578125 9.34773438 21.0715625 9.01171875 20.078125 C8.5706888 18.80195323 8.12926154 17.52591871 7.6875 16.25 C7.47416016 15.61578125 7.26082031 14.9815625 7.04101562 14.328125 C5.78642901 10.7328917 4.40545002 7.93999447 2 5 C1.28837557 3.35202764 0.60968047 1.68834592 0 0 Z " fill="#A3ACB3" transform="translate(62,14)"/>
<path d="M0 0 C-0.886875 0.495 -1.77375 0.99 -2.6875 1.5 C-5.25964598 2.94946751 -7.73794814 4.47733782 -10.21875 6.08203125 C-10.78891846 6.448125 -11.35908691 6.81421875 -11.9465332 7.19140625 C-13.64028261 8.28209441 -15.32613019 9.38502293 -17.01171875 10.48828125 C-20 12 -20 12 -22.39453125 11.73046875 C-22.92433594 11.48941406 -23.45414063 11.24835937 -24 11 C-21.48492051 5.96984102 -14.92593801 4.00686363 -10 2 C-9.278125 1.62875 -8.55625 1.2575 -7.8125 0.875 C-2.94736842 -1.47368421 -2.94736842 -1.47368421 0 0 Z " fill="#CED5DB" transform="translate(35,45)"/>
<path d="M0 0 C2.375 2.0625 2.375 2.0625 4 4 C1.6875 4.625 1.6875 4.625 -1 5 C-1.99 4.34 -2.98 3.68 -4 3 C-6.05396726 3.40929986 -6.05396726 3.40929986 -8 4 C-8.66 3.67 -9.32 3.34 -10 3 C-10 3.99 -10 4.98 -10 6 C-11.32 6.33 -12.64 6.66 -14 7 C-14 6.01 -14 5.02 -14 4 C-9.32792265 -0.29326027 -6.21828517 -1.64974913 0 0 Z " fill="#3A4751" transform="translate(44,44)"/>
<path d="M0 0 C0.33 0 0.66 0 1 0 C1.33 4.29 1.66 8.58 2 13 C2.66 13 3.32 13 4 13 C4 15.64 4 18.28 4 21 C2.35 21.66 0.7 22.32 -1 23 C-1.1567564 15.28410183 -0.67453101 7.68483539 0 0 Z " fill="#5F6C76" transform="translate(41,18)"/>
<path d="M0 0 C2 1 2 1 4 4 C1.56495491 5.0063655 -0.87270864 6.00526413 -3.3125 7 C-4.34793945 7.42925781 -4.34793945 7.42925781 -5.40429688 7.8671875 C-8.41545674 9.08910744 -10.71886984 10 -14 10 C-14 10.66 -14 11.32 -14 12 C-14.66 12 -15.32 12 -16 12 C-14.89280571 8.67841714 -14.52974601 8.41279673 -11.69140625 6.703125 C-11.02689453 6.30222656 -10.36238281 5.90132812 -9.67773438 5.48828125 C-8.63069336 4.87533203 -8.63069336 4.87533203 -7.5625 4.25 C-6.86833984 3.82589844 -6.17417969 3.40179688 -5.45898438 2.96484375 C-3.67896541 1.90682667 -1.84238567 0.94524214 0 0 Z " fill="#5D6770" transform="translate(28,48)"/>
<path d="M0 0 C2.27624743 3.58574885 2.14250578 6.32949214 1.8125 10.5 C1.73644531 11.6240625 1.66039062 12.748125 1.58203125 13.90625 C0.97834747 17.11509266 0.16958259 18.61404394 -2 21 C-2.33 18.36 -2.66 15.72 -3 13 C-3.33 14.98 -3.66 16.96 -4 19 C-4.33 19 -4.66 19 -5 19 C-5.05391993 17.20866022 -5.09275571 15.41686101 -5.125 13.625 C-5.14820313 12.62726562 -5.17140625 11.62953125 -5.1953125 10.6015625 C-5 8 -5 8 -3 6 C-2.30062468 4.68352881 -1.63270867 3.34977849 -1 2 C-0.67 1.34 -0.34 0.68 0 0 Z " fill="#ABB1B6" transform="translate(8,28)"/>
<path d="M0 0 C3.29002805 4.93504208 3.57249825 9.22730934 3 15 C2.21009829 17.52125603 1.20808718 19.63416261 0 22 C-2 20 -2 20 -2.04345703 17.93701172 C-1.94919434 17.10959473 -1.85493164 16.28217773 -1.7578125 15.4296875 C-1.66113281 14.53378906 -1.56445312 13.63789062 -1.46484375 12.71484375 C-1.35269531 11.77769531 -1.24054688 10.84054688 -1.125 9.875 C-1.02058594 8.93011719 -0.91617188 7.98523437 -0.80859375 7.01171875 C-0.5487593 4.6732087 -0.27883941 2.33630756 0 0 Z " fill="#BDC1C5" transform="translate(70,36)"/>
<path d="M0 0 C0.33 0 0.66 0 1 0 C1.12117187 0.83402344 1.24234375 1.66804688 1.3671875 2.52734375 C2.34461632 9.09115424 3.46783577 15.54302216 5 22 C4.34 22 3.68 22 3 22 C2.34 19.69 1.68 17.38 1 15 C0.01 15 -0.98 15 -2 15 C-3.4783226 12.04335481 -3.06032783 9.25770263 -3 6 C-2.34 5.67 -1.68 5.34 -1 5 C-0.34444881 2.47266765 -0.34444881 2.47266765 0 0 Z " fill="#4C545A" transform="translate(7,35)"/>
<path d="M0 0 C5.67177385 -0.45374191 8.5975268 0.34916857 13 4 C13 4.66 13 5.32 13 6 C7.375 6.25 7.375 6.25 4 4 C1.66800612 3.92094936 -0.66832622 3.91201231 -3 4 C-2.67 3.34 -2.34 2.68 -2 2 C-1.34 2 -0.68 2 0 2 C0 1.34 0 0.68 0 0 Z " fill="#D5DBDF" transform="translate(38,40)"/>
<path d="M0 0 C10.395 0.99 10.395 0.99 21 2 C21.33 2.99 21.66 3.98 22 5 C7.65637784 5.38824842 7.65637784 5.38824842 2 3 C1.34 2.01 0.68 1.02 0 0 Z " fill="#939BA1" transform="translate(24,73)"/>
<path d="M0 0 C0.66 0.66 1.32 1.32 2 2 C-0.31 2 -2.62 2 -5 2 C-5.33 3.32 -5.66 4.64 -6 6 C-6.33 4.68 -6.66 3.36 -7 2 C-12.3086849 2.58174845 -12.3086849 2.58174845 -17 5 C-19.6875 5.125 -19.6875 5.125 -22 5 C-17.10902015 -1.32950333 -7.18801496 -0.74170716 0 0 Z " fill="#565D63" transform="translate(46,8)"/>
<path d="M0 0 C0.33 0 0.66 0 1 0 C1.33 3.3 1.66 6.6 2 10 C1.195625 10.350625 0.39125 10.70125 -0.4375 11.0625 C-5.08709134 13.35942042 -8.99208034 16.74913183 -13 20 C-13 19.01 -13 18.02 -13 17 C-10.6640625 15.01953125 -10.6640625 15.01953125 -7.625 12.8125 C-2.67838073 9.00085139 -2.67838073 9.00085139 -0.3125 3.4375 C-0.209375 2.303125 -0.10625 1.16875 0 0 Z " fill="#B3B6B8" transform="translate(35,30)"/>
<path d="M0 0 C0.33 0 0.66 0 1 0 C1.36801906 7.93285519 0.77476512 14.5345605 -2 22 C-3.0625 20.125 -3.0625 20.125 -4 18 C-3.67 17.34 -3.34 16.68 -3 16 C-3.00569738 14.41612876 -3.05307965 12.83224777 -3.125 11.25 C-3.19017302 6.75306169 -2.44500508 3.87125804 0 0 Z " fill="#888C91" transform="translate(75,35)"/>
<path d="M0 0 C0.598125 0.763125 1.19625 1.52625 1.8125 2.3125 C3.84004112 4.91335259 3.84004112 4.91335259 5.75 6.6875 C7 8 7 8 7 10 C5.68 9.34 4.36 8.68 3 8 C2.67 8.33 2.34 8.66 2 9 C-1.25061904 8.56658413 -2.95502089 7.55622389 -5 5 C-5 4.34 -5 3.68 -5 3 C-4.34 3 -3.68 3 -3 3 C-2.67 3.66 -2.34 4.32 -2 5 C-1.34 3.35 -0.68 1.7 0 0 Z " fill="#AAB2B8" transform="translate(14,58)"/>
<path d="M0 0 C3.61861111 5.42791666 3.11082539 11.68295272 3 18 C2.67 18 2.34 18 2 18 C1.67 15.69 1.34 13.38 1 11 C0.67 13.31 0.34 15.62 0 18 C-0.33 18 -0.66 18 -1 18 C-1.02684312 15.18743719 -1.04676188 12.37512759 -1.0625 9.5625 C-1.07087891 8.76005859 -1.07925781 7.95761719 -1.08789062 7.13085938 C-1.0965143 5.08704779 -1.0522815 3.04316098 -1 1 C-0.67 0.67 -0.34 0.34 0 0 Z " fill="#929BA3" transform="translate(41,13)"/>
<path d="M0 0 C0.66 0 1.32 0 2 0 C5.125 6.625 5.125 6.625 4 10 C3.01 11.485 3.01 11.485 2 13 C1.46845258 11.39935157 0.95011647 9.79431126 0.4375 8.1875 C0.14746094 7.29417969 -0.14257812 6.40085937 -0.44140625 5.48046875 C-1 3 -1 3 0 0 Z " fill="#949FA7" transform="translate(70,24)"/>
<path d="M0 0 C5.02712864 1.28600965 7.5436849 3.17002922 11 7 C11.598125 7.598125 12.19625 8.19625 12.8125 8.8125 C13.204375 9.204375 13.59625 9.59625 14 10 C13.67 10.66 13.34 11.32 13 12 C12.48050781 11.52949219 11.96101563 11.05898438 11.42578125 10.57421875 C7.75340448 7.29555335 4.24098537 4.51808506 0 2 C0 1.34 0 0.68 0 0 Z " fill="#90989F" transform="translate(50,10)"/>
<path d="M0 0 C0.61328125 1.80859375 0.61328125 1.80859375 1 4 C-0.8125 7.0625 -0.8125 7.0625 -3 10 C-3.99 11.485 -3.99 11.485 -5 13 C-5.66 12.67 -6.32 12.34 -7 12 C-5.44298069 7.32894208 -2.91552627 3.91294315 0 0 Z " fill="#656568" transform="translate(71,55)"/>
<path d="M0 0 C-1.55961362 0.96302356 -3.12283225 1.92021004 -4.6875 2.875 C-5.55761719 3.40867187 -6.42773438 3.94234375 -7.32421875 4.4921875 C-9.83391082 5.90640814 -12.30299069 6.99894789 -15 8 C-14.195625 7.236875 -13.39125 6.47375 -12.5625 5.6875 C-9.83200976 3.20569102 -9.83200976 3.20569102 -9 0 C-3.375 -1.125 -3.375 -1.125 0 0 Z " fill="#DFE3E6" transform="translate(30,9)"/>
<path d="M0 0 C0.66 0 1.32 0 2 0 C1.6875 3.375 1.6875 3.375 1 7 C-2.48058971 9.32039314 -2.98142912 9 -7 9 C-6.57847656 8.51789063 -6.15695313 8.03578125 -5.72265625 7.5390625 C-5.17480469 6.90742187 -4.62695312 6.27578125 -4.0625 5.625 C-3.51722656 4.99851562 -2.97195312 4.37203125 -2.41015625 3.7265625 C-0.93041376 2.04367666 -0.93041376 2.04367666 0 0 Z " fill="#C5C5C8" transform="translate(64,58)"/>
<path d="M0 0 C0.66 0.33 1.32 0.66 2 1 C0.576875 2.0828125 0.576875 2.0828125 -0.875 3.1875 C-3.67412562 5.49809898 -4.98517558 7.44811452 -6 11 C-6.99 10.67 -7.98 10.34 -9 10 C-7.61811547 6.78956118 -6.07578097 4.95063635 -3.375 2.75 C-2.74335938 2.22921875 -2.11171875 1.7084375 -1.4609375 1.171875 C-0.73777344 0.59179688 -0.73777344 0.59179688 0 0 Z " fill="#C1C3C6" transform="translate(20,10)"/>
<path d="M0 0 C3.465 1.98 3.465 1.98 7 4 C4.21330763 5.39334618 2.02979956 4.62120522 -0.95703125 4.19140625 C-3.46252713 3.95666572 -5.58613759 4.3211012 -8 5 C-7.34 4.67 -6.68 4.34 -6 4 C-6 3.01 -6 2.02 -6 1 C-4.7934375 1.0309375 -4.7934375 1.0309375 -3.5625 1.0625 C-1.06645115 1.29633621 -1.06645115 1.29633621 0 0 Z " fill="#7E8B91" transform="translate(40,46)"/>
<path d="M0 0 C2.64 1.98 5.28 3.96 8 6 C7.01 6.495 7.01 6.495 6 7 C5.34 6.67 4.68 6.34 4 6 C3.67 6.66 3.34 7.32 3 8 C0.9375 5.6875 0.9375 5.6875 -1 3 C-0.67 2.01 -0.34 1.02 0 0 Z " fill="#B0B8C1" transform="translate(15,64)"/>
<path d="M0 0 C3.37503669 1.1858237 5.64722731 2.27573689 8 5 C6.35 5.33 4.7 5.66 3 6 C0 2.25 0 2.25 0 0 Z " fill="#28333C" transform="translate(40,43)"/>
<path d="M0 0 C0.66 0.33 1.32 0.66 2 1 C-1.17320782 4.53586014 -3.16743695 6.58578031 -8 7 C-5.42215154 4.35247996 -3.08351902 2.05567935 0 0 Z " fill="#53575A" transform="translate(63,66)"/>
<path d="M0 0 C1.32 0.66 2.64 1.32 4 2 C1.03 3.65 -1.94 5.3 -5 7 C-5.33 6.01 -5.66 5.02 -6 4 C-4.02 2.68 -2.04 1.36 0 0 Z " fill="#777A7D" transform="translate(23,12)"/>
<path d="M0 0 C2.86697492 1.28519565 4.97607712 2.57129254 7 5 C7 5.66 7 6.32 7 7 C4.13302508 5.71480435 2.02392288 4.42870746 0 2 C0 1.34 0 0.68 0 0 Z " fill="#7F878F" transform="translate(14,61)"/>
<path d="M0 0 C-2.5654594 2.5654594 -4.47686668 2.54046087 -8 3 C-8 3.66 -8 4.32 -8 5 C-8.66 5 -9.32 5 -10 5 C-8.20177069 -0.39468792 -5.09771267 -0.22656501 0 0 Z " fill="#6C757C" transform="translate(22,55)"/>
<path d="M0 0 C0.99 0 1.98 0 3 0 C2.67 1.65 2.34 3.3 2 5 C1.01 5.33 0.02 5.66 -1 6 C-1.33 5.01 -1.66 4.02 -2 3 C-1.34 2.01 -0.68 1.02 0 0 Z " fill="#D0D2D5" transform="translate(10,19)"/>
<path d="M0 0 C6.625 -0.25 6.625 -0.25 10 2 C9 3 9 3 5.5625 3.25 C4.386875 3.1675 3.21125 3.085 2 3 C1.34 2.01 0.68 1.02 0 0 Z " fill="#CFD3D8" transform="translate(44,6)"/>
<path d="M0 0 C3.6875 1.375 3.6875 1.375 7 3 C6.67 3.66 6.34 4.32 6 5 C3.03 4.01 0.06 3.02 -3 2 C-2.01 1.34 -1.02 0.68 0 0 Z " fill="#5F6568" transform="translate(60,54)"/>
<path d="M0 0 C0.66 0.66 1.32 1.32 2 2 C-2.455 4.97 -2.455 4.97 -7 8 C-4.9957983 3.9915966 -3.50944037 2.58590343 0 0 Z " fill="#C1C3C8" transform="translate(28,42)"/>
<path d="M0 0 C2.64 0.33 5.28 0.66 8 1 C8 1.99 8 2.98 8 4 C5.125 3.6875 5.125 3.6875 2 3 C1.34 2.01 0.68 1.02 0 0 Z " fill="#9AA3AC" transform="translate(24,73)"/>
<path d="M0 0 C2.31 0.66 4.62 1.32 7 2 C7 2.33 7 2.66 7 3 C4.69 3.33 2.38 3.66 0 4 C-0.33 3.34 -0.66 2.68 -1 2 C-0.67 1.34 -0.34 0.68 0 0 Z " fill="#ABB4BC" transform="translate(27,70)"/>
</svg>
