<?xml version="1.0" encoding="UTF-8"?>
<svg version="1.1" xmlns="http://www.w3.org/2000/svg" width="143" height="79">
<path d="M0 0 C3.3 0 6.6 0 10 0 C10.09922585 4.18084291 10.17163374 8.36105371 10.21972656 12.54272461 C10.23978421 13.96374457 10.26703778 15.38468259 10.30175781 16.80541992 C10.35054011 18.85355895 10.37302539 20.90060275 10.390625 22.94921875 C10.41157227 24.17987061 10.43251953 25.41052246 10.45410156 26.6784668 C9.91535818 30.61911399 8.78041287 32.21227694 6 35 C0.7315768 37.69846066 -5.21264572 37.56840087 -11 37 C-14.6827886 35.61895428 -17.54036285 34.10691008 -20 31 C-21.77882289 25.66353134 -21.44723163 21.04741524 -19 16 C-19.33 15.67 -19.66 15.34 -20 15 C-20 12.69 -20 10.38 -20 8 C-15.05 8 -10.1 8 -5 8 C-4.525625 9.134375 -4.05125 10.26875 -3.5625 11.4375 C-2.36377917 14.75740166 -2.36377917 14.75740166 -1 16 C-0.67 10.72 -0.34 5.44 0 0 Z " fill="#030305" transform="translate(75,0)"/>
<path d="M0 0 C0.99 0 1.98 0 3 0 C3 1.65 3 3.3 3 5 C3.99 5 4.98 5 6 5 C6 3.35 6 1.7 6 0 C6.99 0.33 7.98 0.66 9 1 C9 2.98 9 4.96 9 7 C9.99 6.67 10.98 6.34 12 6 C12.33 5.34 12.66 4.68 13 4 C13.66 4 14.32 4 15 4 C15.33 4.66 15.66 5.32 16 6 C18.31 5.34 20.62 4.68 23 4 C23.33 2.68 23.66 1.36 24 0 C25.65 0 27.3 0 29 0 C29 2.97 29 5.94 29 9 C27.989375 9.12375 26.97875 9.2475 25.9375 9.375 C22.0068112 9.91629481 22.0068112 9.91629481 18.3125 11.0625 C15 12 15 12 11 12 C11 11.01 11 10.02 11 9 C10.2575 9.33 9.515 9.66 8.75 10 C4.66839796 11.48421892 1.35923822 10.96687958 -2.75 10 C-3.54921875 9.814375 -4.3484375 9.62875 -5.171875 9.4375 C-5.77515625 9.293125 -6.3784375 9.14875 -7 9 C-6.67 7.02 -6.34 5.04 -6 3 C-5.195625 2.87625 -4.39125 2.7525 -3.5625 2.625 C-2.716875 2.41875 -1.87125 2.2125 -1 2 C-0.67 1.34 -0.34 0.68 0 0 Z M-4 5 C-3 7 -3 7 -3 7 Z " fill="#090909" transform="translate(59,58)"/>
<path d="M0 0 C1.65 0.33 3.3 0.66 5 1 C5.33 1.99 5.66 2.98 6 4 C6.33 3.01 6.66 2.02 7 1 C7.99 1.33 8.98 1.66 10 2 C10.33 3.98 10.66 5.96 11 8 C11.66 8 12.32 8 13 8 C13 7.01 13 6.02 13 5 C14.32 5.33 15.64 5.66 17 6 C17.33 4.35 17.66 2.7 18 1 C19.98 1 21.96 1 24 1 C24 3.97 24 6.94 24 10 C21.36 10 18.72 10 16 10 C16 10.99 16 11.98 16 13 C15.34 13 14.68 13 14 13 C14 12.01 14 11.02 14 10 C5.585 10.495 5.585 10.495 -3 11 C-3.33 12.32 -3.66 13.64 -4 15 C-5.65 15 -7.3 15 -9 15 C-9.33 12.69 -9.66 10.38 -10 8 C-6.55930376 5.70620251 -5.27709699 5 -1 5 C-0.67 3.35 -0.34 1.7 0 0 Z " fill="#0C0B0B" transform="translate(46,43)"/>
<path d="M0 0 C0.33 1.32 0.66 2.64 1 4 C2.32 4 3.64 4 5 4 C5 4.99 5 5.98 5 7 C5.99 7 6.98 7 8 7 C8 5.02 8 3.04 8 1 C8.99 1.33 9.98 1.66 11 2 C11.33 1.34 11.66 0.68 12 0 C12.99 0 13.98 0 15 0 C15.33 1.32 15.66 2.64 16 4 C17.32 4 18.64 4 20 4 C20 6.31 20 8.62 20 11 C18.68 11.33 17.36 11.66 16 12 C15.67 11.01 15.34 10.02 15 9 C11.7 9 8.4 9 5 9 C4.67 9.99 4.34 10.98 4 12 C1.525 11.505 1.525 11.505 -1 11 C-1 10.34 -1 9.68 -1 9 C-5.29 9 -9.58 9 -14 9 C-13.67 7.35 -13.34 5.7 -13 4 C-11.68 4 -10.36 4 -9 4 C-9 4.99 -9 5.98 -9 7 C-8.01 7 -7.02 7 -6 7 C-6.0928125 5.824375 -6.0928125 5.824375 -6.1875 4.625 C-6.125625 3.75875 -6.06375 2.8925 -6 2 C-3 0 -3 0 0 0 Z " fill="#0B0B0B" transform="translate(14,44)"/>
<path d="M0 0 C0.99 0 1.98 0 3 0 C3 1.65 3 3.3 3 5 C3.99 5 4.98 5 6 5 C6 5.66 6 6.32 6 7 C6.99 7 7.98 7 9 7 C9.33 6.01 9.66 5.02 10 4 C10.66 4 11.32 4 12 4 C12 2.68 12 1.36 12 0 C12.99 0 13.98 0 15 0 C15 2.97 15 5.94 15 9 C13.68 9 12.36 9 11 9 C11 9.99 11 10.98 11 12 C10.01 12 9.02 12 8 12 C8 11.01 8 10.02 8 9 C7.34 9 6.68 9 6 9 C5.67 9.99 5.34 10.98 5 12 C4.01 11.67 3.02 11.34 2 11 C2 10.34 2 9.68 2 9 C0.0509375 9.185625 0.0509375 9.185625 -1.9375 9.375 C-2.66839844 9.44460937 -3.39929688 9.51421875 -4.15234375 9.5859375 C-4.76207031 9.72257812 -5.37179688 9.85921875 -6 10 C-6.33 10.66 -6.66 11.32 -7 12 C-8.65 11.67 -10.3 11.34 -12 11 C-12 10.34 -12 9.68 -12 9 C-14.47266765 9.34444881 -14.47266765 9.34444881 -17 10 C-17.33 10.66 -17.66 11.32 -18 12 C-18.66 12 -19.32 12 -20 12 C-20.36458333 7.50347222 -20.36458333 7.50347222 -18.6875 5.1875 C-17 4 -17 4 -14 4 C-14 4.99 -14 5.98 -14 7 C-12.68 7 -11.36 7 -10 7 C-10 6.01 -10 5.02 -10 4 C-8.8553125 3.7834375 -8.8553125 3.7834375 -7.6875 3.5625 C-4.91827092 3.0367406 -4.91827092 3.0367406 -2 2 C-1.67 2.66 -1.34 3.32 -1 4 C-0.67 2.68 -0.34 1.36 0 0 Z " fill="#0B0B0B" transform="translate(92,44)"/>
<path d="M0 0 C1.32 0 2.64 0 4 0 C4.33 1.98 4.66 3.96 5 6 C5.66 6 6.32 6 7 6 C7.33 5.01 7.66 4.02 8 3 C11.0625 1.3125 11.0625 1.3125 14 0 C16.62386487 3.06117568 17 3.73173127 17 8 C11.06 8 5.12 8 -1 8 C-0.67 6.68 -0.34 5.36 0 4 C0 2.68 0 1.36 0 0 Z " fill="#0D0D0D" transform="translate(110,45)"/>
<path d="M0 0 C3.93846154 3.32307692 3.93846154 3.32307692 4.25 6.75 C4.1675 7.4925 4.085 8.235 4 9 C1.03 9 -1.94 9 -5 9 C-5.33 9.99 -5.66 10.98 -6 12 C-6.99 11.67 -7.98 11.34 -9 11 C-8.67 9.02 -8.34 7.04 -8 5 C-7.01 5 -6.02 5 -5 5 C-5 5.66 -5 6.32 -5 7 C-1.98672434 5.49336217 -1.38943382 2.96833589 0 0 Z " fill="#0B0B0B" transform="translate(136,44)"/>
<path d="M0 0 C3.3 0 6.6 0 10 0 C10 0.33 10 0.66 10 1 C7.03 1 4.06 1 1 1 C1 2.98 1 4.96 1 7 C3.64 7 6.28 7 9 7 C9.33 7.66 9.66 8.32 10 9 C8.72125 9.144375 7.4425 9.28875 6.125 9.4375 C3.74307106 9.70642746 2.15547309 9.92226346 0 11 C0 7.37 0 3.74 0 0 Z " fill="#161617" transform="translate(75,0)"/>
<path d="M0 0 C1.32 0.33 2.64 0.66 4 1 C3.01 1 2.02 1 1 1 C1.33 1.99 1.66 2.98 2 4 C1.5625 6.1875 1.5625 6.1875 1 8 C1.99 8.33 2.98 8.66 4 9 C2.02 9.33 0.04 9.66 -2 10 C-2.12375 9.360625 -2.2475 8.72125 -2.375 8.0625 C-2.684375 7.0415625 -2.684375 7.0415625 -3 6 C-3.66 5.67 -4.32 5.34 -5 5 C-3.68 5 -2.36 5 -1 5 C-0.67 3.35 -0.34 1.7 0 0 Z " fill="#050505" transform="translate(46,43)"/>
<path d="M0 0 C0.99 0 1.98 0 3 0 C4.125 6.625 4.125 6.625 3 10 C2.01 9.67 1.02 9.34 0 9 C0.66 9 1.32 9 2 9 C2 7.68 2 6.36 2 5 C1.34 5 0.68 5 0 5 C0 3.35 0 1.7 0 0 Z " fill="#030303" transform="translate(59,58)"/>
<path d="M0 0 C1.32 0 2.64 0 4 0 C4 2.31 4 4.62 4 7 C2.68 7.33 1.36 7.66 0 8 C0 7.01 0 6.02 0 5 C0.66 5.33 1.32 5.66 2 6 C1.34 4.02 0.68 2.04 0 0 Z " fill="#060606" transform="translate(30,48)"/>
<path d="M0 0 C1.32 0 2.64 0 4 0 C4.625 2.3125 4.625 2.3125 5 5 C4.01 6.485 4.01 6.485 3 8 C1.68 7.67 0.36 7.34 -1 7 C0.32 5.02 1.64 3.04 3 1 C2.01 0.67 1.02 0.34 0 0 Z " fill="#030303" transform="translate(15,48)"/>
<path d="M0 0 C0.66 0 1.32 0 2 0 C2.66 2.97 3.32 5.94 4 9 C2.68 8.34 1.36 7.68 0 7 C0 4.69 0 2.38 0 0 Z " fill="#0F0F10" transform="translate(83,58)"/>
<path d="M0 0 C0.99 0.99 1.98 1.98 3 3 C1 5 1 5 -1.625 5.125 C-2.40875 5.08375 -3.1925 5.0425 -4 5 C-3 2 -3 2 0 0 Z " fill="#0A0A0A" transform="translate(123,45)"/>
<path d="M0 0 C0.66 0.33 1.32 0.66 2 1 C0.68 3.31 -0.64 5.62 -2 8 C-2.66 7.01 -3.32 6.02 -4 5 C-3 2 -3 2 0 0 Z " fill="#020204" transform="translate(88,46)"/>
<path d="M0 0 C0.99 0.66 1.98 1.32 3 2 C3 2.66 3 3.32 3 4 C2.01 4 1.02 4 0 4 C0 4.66 0 5.32 0 6 C-0.66 6 -1.32 6 -2 6 C-1.125 1.125 -1.125 1.125 0 0 Z " fill="#040404" transform="translate(136,44)"/>
<path d="M0 0 C2.475 0.99 2.475 0.99 5 2 C5 3.32 5 4.64 5 6 C4.01 5.67 3.02 5.34 2 5 C0.8125 2.4375 0.8125 2.4375 0 0 Z " fill="#0E0E0E" transform="translate(56,61)"/>
</svg>
