<svg width="25" height="24" viewBox="0 0 25 24" fill="none" xmlns="http://www.w3.org/2000/svg">
<path d="M12.8288 1.01751C13.9596 1 15.0821 1.0091 16.2039 1C16.2412 2.42236 16.8104 3.70256 17.716 4.6508L17.7146 4.6494C18.6893 5.53952 19.9575 6.11659 21.3557 6.21463L21.375 6.21603V9.74288C20.0542 9.70926 18.8122 9.40042 17.6925 8.86957L17.7491 8.89338C17.2076 8.62936 16.7496 8.35833 16.3144 8.05579L16.3503 8.0796C16.342 10.6351 16.3586 13.1906 16.3331 15.737C16.2619 17.0347 15.8364 18.2182 15.1539 19.2064L15.1677 19.1847C14.0266 20.8417 12.1781 21.9293 10.076 21.9937H10.0664C9.9814 21.9979 9.88124 22 9.78039 22C8.58535 22 7.46837 21.6624 6.51649 21.0763L6.54412 21.0924C4.81166 20.0356 3.61663 18.2273 3.39558 16.1243L3.39282 16.0955C3.37555 15.6578 3.36726 15.2201 3.38453 14.7915C3.72301 11.4447 6.48886 8.85557 9.85085 8.85557C10.2287 8.85557 10.599 8.88848 10.9588 8.95081L10.9202 8.94521C10.9374 10.2401 10.8856 11.5357 10.8856 12.8306C10.5934 12.7235 10.2563 12.6611 9.90473 12.6611C8.61436 12.6611 7.51673 13.4973 7.11055 14.6648L7.10434 14.6858C7.01246 14.9848 6.95927 15.3287 6.95927 15.6845C6.95927 15.8287 6.96825 15.9716 6.98483 16.1117L6.98345 16.0948C7.21279 17.5277 8.4244 18.609 9.88539 18.609C9.92752 18.609 9.96897 18.6083 10.0104 18.6062H10.0042C11.0148 18.5754 11.8921 18.0242 12.3881 17.2098L12.395 17.1972C12.5794 16.9366 12.7058 16.6215 12.7479 16.279L12.7486 16.2692C12.835 14.7026 12.8004 13.1451 12.8087 11.5784C12.817 8.05159 12.8004 4.53315 12.826 1.01541L12.8288 1.01751Z" fill="white"/>
</svg>
