<svg width="25" height="24" viewBox="0 0 25 24" fill="none" xmlns="http://www.w3.org/2000/svg">
<path d="M12.381 22.2698C14.2946 22.2686 14.8644 21.4665 16.124 20.9079C17.2488 20.4091 18.8587 21.1623 19.1926 19.8271C19.2359 19.1371 20.4491 19.2482 21.1297 18.7773C21.7506 18.3478 21.8127 17.6593 21.1748 17.3883C19.731 16.7749 18.2132 15.4311 17.8459 13.9901C17.6168 13.0912 20.4853 12.8148 19.888 11.12C19.5355 10.12 18.269 10.4721 17.58 10.6961C18.0391 7.14185 16.309 4 12.3751 4C8.44118 4 6.71109 7.14185 7.17019 10.6961C6.48118 10.4721 5.21468 10.12 4.86219 11.12C4.26484 12.8148 7.13338 13.0912 6.90423 13.9901C6.53693 15.4311 5.01924 16.7749 3.57533 17.3883C2.93749 17.6593 2.99953 18.3478 3.62043 18.7773C4.30103 19.2482 5.51434 19.1371 5.55754 19.8271C5.89149 21.1623 7.50134 20.4091 8.62619 20.9079C9.88574 21.4665 10.4556 22.2686 12.3692 22.2698H12.381Z" fill="white"/>
</svg>
