<svg width="25" height="24" viewBox="0 0 25 24" fill="none" xmlns="http://www.w3.org/2000/svg">
<path d="M8.31534 1C4.83339 1 2 3.83339 2 7.31534V16.0597C2 19.5416 4.83339 22.375 8.31534 22.375H17.0597C20.5416 22.375 23.375 19.5416 23.375 16.0597V7.31534C23.375 3.83339 20.5416 1 17.0597 1H8.31534ZM8.31534 1.97159H17.0597C20.0164 1.97159 22.4034 4.35856 22.4034 7.31534V16.0597C22.4034 19.0164 20.0164 21.4034 17.0597 21.4034H8.31534C5.35856 21.4034 2.97159 19.0164 2.97159 16.0597V7.31534C2.97159 4.35856 5.35856 1.97159 8.31534 1.97159ZM18.517 4.88636C17.9805 4.88636 17.5455 5.32136 17.5455 5.85795C17.5455 6.39455 17.9805 6.82955 18.517 6.82955C19.0536 6.82955 19.4886 6.39455 19.4886 5.85795C19.4886 5.32136 19.0536 4.88636 18.517 4.88636ZM12.6875 6.34375C9.74198 6.34375 7.34375 8.74198 7.34375 11.6875C7.34375 14.633 9.74198 17.0312 12.6875 17.0312C15.633 17.0312 18.0312 14.633 18.0312 11.6875C18.0312 8.74198 15.633 6.34375 12.6875 6.34375ZM12.6875 7.31534C15.1079 7.31534 17.0597 9.26707 17.0597 11.6875C17.0597 14.1079 15.1079 16.0597 12.6875 16.0597C10.2671 16.0597 8.31534 14.1079 8.31534 11.6875C8.31534 9.26707 10.2671 7.31534 12.6875 7.31534Z" fill="white"/>
</svg>
