<svg width="25" height="24" viewBox="0 0 25 24" fill="none" xmlns="http://www.w3.org/2000/svg">
<g clip-path="url(#clip0_4203_136)">
<path d="M23.8835 7.92188C23.6719 6.75354 22.6633 5.90271 21.4929 5.63709C19.7415 5.26562 16.5 5 12.9929 5C9.48791 5 6.19458 5.26562 4.44104 5.63709C3.2727 5.90271 2.26209 6.69959 2.05041 7.92188C1.83667 9.25 1.625 11.1094 1.625 13.5C1.625 15.8906 1.83667 17.75 2.1023 19.0781C2.31604 20.2465 3.32459 21.0973 4.49292 21.3629C6.3523 21.7344 9.5398 22 13.0469 22C16.554 22 19.7415 21.7344 21.6008 21.3629C22.7692 21.0973 23.7777 20.3004 23.9915 19.0781C24.2031 17.75 24.4688 15.8367 24.5227 13.5C24.4148 11.1094 24.1492 9.25 23.8835 7.92188ZM10.125 17.2188V9.78125L16.6058 13.5L10.125 17.2188Z" fill="white"/>
</g>
<defs>
<clipPath id="clip0_4203_136">
<rect width="24" height="24" fill="white" transform="translate(0.625)"/>
</clipPath>
</defs>
</svg>
