<svg width="25" height="24" viewBox="0 0 25 24" fill="none" xmlns="http://www.w3.org/2000/svg">
<g clip-path="url(#clip0_4203_144)">
<path fill-rule="evenodd" clip-rule="evenodd" d="M5.86248 23V8.83063H1.15339V22.9999H5.86248V23ZM3.50843 6.89676C5.15007 6.89676 6.17268 5.80781 6.17268 4.44812C6.14164 3.05821 5.15007 2 3.53921 2C1.9281 2.00004 0.875 3.05825 0.875 4.44817C0.875 5.80785 1.89705 6.8968 3.47743 6.8968L3.50843 6.89676ZM8.46878 23C8.46878 23 8.53056 10.1601 8.46878 8.83068H13.1786V10.8855H13.1473C13.7666 9.9186 14.8823 8.49794 17.4227 8.49794C20.5219 8.49794 22.8449 10.5231 22.8449 14.8754V23H18.1359V15.4198C18.1359 13.5151 17.4545 12.2154 15.7498 12.2154C14.4491 12.2154 13.6739 13.0916 13.3335 13.9386C13.2089 14.2401 13.1786 14.6635 13.1786 15.087V23H8.46878Z" fill="white"/>
</g>
<defs>
<clipPath id="clip0_4203_144">
<rect width="24" height="24" fill="white" transform="translate(0.25)"/>
</clipPath>
</defs>
</svg>
