<svg width="25" height="24" viewBox="0 0 25 24" fill="none" xmlns="http://www.w3.org/2000/svg">
<path fill-rule="evenodd" clip-rule="evenodd" d="M17.4885 10.9996C17.256 8.34386 15.6632 5.97624 12.6558 5.97624C10.4744 5.97624 9.48516 7.181 9.18838 7.63148L10.7861 8.86243C10.7861 8.86243 10.791 8.86243 10.791 8.85195C10.791 8.85195 11.3054 8.07148 12.6509 8.07148C14.1348 8.07148 15.0004 9.06147 15.3467 10.3081C14.7877 10.2034 14.2832 10.1667 13.8875 10.1667C11.9287 10.1667 10.6772 10.7638 9.90066 11.5129C9.01525 12.3615 8.69373 13.4457 8.69373 14.3572C8.69373 16.8453 11.0779 17.7619 12.6509 17.7619C15.1785 17.7619 16.8256 15.74 17.3401 13.3305C18.1909 13.9905 18.8339 15.0486 18.8339 16.7143C18.8339 17.3376 18.5322 18.0814 17.9683 18.7624C16.9889 19.9514 15.2279 20.9048 12.6509 20.9048C10.6871 20.9048 8.89654 20.2343 7.60058 18.7991C6.26505 17.3219 5.47857 15.0643 5.47857 12C5.47857 8.93576 6.46785 3.07435 12.6459 3.0953C18.5767 3.11102 19.5709 7.89862 19.5907 7.99291L21.5 7.43243C21.2675 6.41101 19.7094 1.02102 12.6558 1.00007C4.91467 0.97388 3.5 8.30719 3.5 12C3.5 15.6929 4.54864 18.4429 6.17106 20.2448C7.838 22.0886 10.1232 23 12.6509 23C18.3392 23 20.8124 19.1186 20.8124 16.7143C20.8124 13.54 19.2246 11.8586 17.4835 10.9996H17.4885ZM12.6558 15.6667C12.2304 15.6667 11.6764 15.5724 11.2312 15.3053C10.9246 15.1167 10.6772 14.8234 10.6772 14.3572C10.6772 13.3829 11.5082 12.2619 13.8924 12.2619C14.2931 12.2619 14.8718 12.3091 15.4852 12.461C15.2675 14.1162 14.3376 15.6667 12.6558 15.6667Z" fill="white"/>
</svg>
