<svg width="24" height="24" viewBox="0 0 24 24" fill="none" xmlns="http://www.w3.org/2000/svg">
<path d="M10.66 15.8426C10.0308 19.1402 9.26295 22.3017 6.98755 23.9531C6.28461 18.9689 8.01851 15.2255 8.82378 11.2513C7.45067 8.94078 8.98869 4.2905 11.884 5.43608C15.4466 6.84542 8.79922 14.0273 13.2612 14.9244C17.9208 15.8607 19.8232 6.83956 16.9343 3.90622C12.7595 -0.329967 4.78222 3.80975 5.76294 9.87472C6.00153 11.3572 7.53317 11.8069 6.37522 13.8537C3.70329 13.2607 2.90623 11.1537 3.00856 8.3443C3.17403 3.74549 7.14017 0.526158 11.1191 0.0805644C16.1506 -0.482592 20.8729 1.92735 21.5249 6.66069C22.2594 12.0034 19.2542 17.7894 13.8735 17.373C12.415 17.2595 11.8027 16.5367 10.66 15.8426Z" fill="white"/>
</svg>
