<svg width="24" height="24" viewBox="0 0 24 24" fill="none" xmlns="http://www.w3.org/2000/svg">
<path d="M14 4.5H16.5C16.776 4.5 17 4.276 17 4V0.6315C17 0.3695 16.7985 0.1515 16.5375 0.133C15.742 0.0765 14.188 0 13.0705 0C10 0 8 1.84 8 5.184V8.5H4.5C4.224 8.5 4 8.724 4 9V12.5C4 12.776 4.224 13 4.5 13H8V22.5C8 22.776 8.224 23 8.5 23H12C12.276 23 12.5 22.776 12.5 22.5V13H16.111C16.366 13 16.58 12.8085 16.608 12.555L16.997 9.055C17.03 8.759 16.798 8.5 16.5 8.5H12.5V6C12.5 5.1715 13.1715 4.5 14 4.5Z" fill="white"/>
</svg>
